<svg width="120" height="111" viewBox="0 0 120 111" fill="none" xmlns="http://www.w3.org/2000/svg">
<path d="M58.802 42.1563C59.1463 41.9567 59.5708 41.9551 59.9166 42.1523L117.014 74.7073C117.766 75.1363 117.766 76.2207 117.014 76.6497L59.9166 109.205C59.5708 109.402 59.1463 109.4 58.802 109.201L2.6643 76.6456C1.9215 76.2148 1.9215 75.1422 2.66431 74.7114L58.802 42.1563Z" stroke="#4695C0" stroke-linecap="round" stroke-linejoin="round"/>
<path d="M18.6055 27.3926C18.6055 25.0837 19.8356 22.9497 21.8335 21.7925L56.2145 1.87875C58.2208 0.716678 60.6955 0.716677 62.7018 1.87875L97.0828 21.7925C99.0807 22.9497 100.311 25.0837 100.311 27.3926V67.2561C100.311 69.565 99.0807 71.6991 97.0828 72.8563L62.7018 92.77C60.6955 93.9321 58.2208 93.9321 56.2145 92.77L21.8335 72.8563C19.8356 71.6991 18.6055 69.5651 18.6055 67.2561V27.3926Z" fill="url(#paint0_linear_998_10572)"/>
<path d="M59.0547 52.9687C59.0547 47.9986 61.9006 43.4675 66.3776 41.3093L95.6709 27.1884C97.8193 26.1527 100.312 27.7182 100.312 30.1032V67.6644C100.312 69.9678 99.0875 72.0977 97.097 73.2569L63.919 92.5785C61.7618 93.8348 59.0547 92.2786 59.0547 89.7822L59.0547 70.5748L59.0547 52.9687Z" fill="url(#paint1_linear_998_10572)"/>
<path d="M18.6055 29.2844C18.6055 26.891 21.114 25.3259 23.2638 26.378L52.3342 40.6053C56.7734 42.7779 59.5879 47.2888 59.5879 52.2311V85.5584C59.5879 85.5584 59.6232 88.7307 60.3492 89.7985C60.9715 90.7136 61.5412 90.9975 62.2895 91.4128C63.0379 91.828 64.7164 92.2217 64.7164 92.2217L62.7784 93.24C60.7948 94.2822 58.4132 94.2242 56.4828 93.0866L21.7917 72.6447C19.8173 71.4813 18.6055 69.3606 18.6055 67.069L18.6055 29.2844Z" fill="url(#paint2_linear_998_10572)"/>
<path d="M84.1159 51.6314C84.1572 52.7026 84.1963 54.7586 84.2334 57.7994C84.2199 58.2803 84.2175 58.6327 84.2261 58.8565C83.9932 61.1232 83.8691 63.0974 83.8538 64.7792L79.4171 64.9501C79.2725 63.2745 78.9969 61.3156 78.5903 59.0736L78.5256 58.0193C78.3349 55.5608 78.2078 53.5082 78.1443 51.8614L84.1159 51.6314ZM84.6391 70.8255L79.0753 71.0398L78.9108 66.771L84.4747 66.5566L84.6391 70.8255Z" fill="white"/>
<path d="M42.2618 48.5214C42.2431 49.5933 42.1674 51.6483 42.0345 54.6864C41.9941 55.1658 41.972 55.5175 41.9681 55.7414C41.6089 57.9915 41.3747 59.9557 41.2655 61.6341L36.8261 61.5568C36.7754 59.8757 36.6097 57.9045 36.329 55.6433L36.3233 54.587C36.2702 52.1217 36.258 50.0652 36.2867 48.4174L42.2618 48.5214ZM41.7117 67.7148L36.1445 67.6179L36.2189 63.3465L41.786 63.4434L41.7117 67.7148Z" fill="white"/>
<path d="M63.2092 13.6833C63.2092 14.7553 63.1692 16.8113 63.0892 19.8513C63.0572 20.3313 63.0412 20.6833 63.0412 20.9073C62.7212 23.1633 62.5212 25.1313 62.4412 26.8113H58.0012C57.9212 25.1313 57.7212 23.1633 57.4012 20.9073L57.3772 19.8513C57.2812 17.3873 57.2332 15.3313 57.2332 13.6833H63.2092ZM62.9932 32.8833H57.4252V28.6113H62.9932V32.8833Z" fill="white"/>
<defs>
<linearGradient id="paint0_linear_998_10572" x1="13.0527" y1="23.8754" x2="105.685" y2="29.6809" gradientUnits="userSpaceOnUse">
<stop stop-color="#89DDFB"/>
<stop offset="1" stop-color="#2F7BAC"/>
</linearGradient>
<linearGradient id="paint1_linear_998_10572" x1="56.2508" y1="43.8297" x2="103.109" y2="45.9984" gradientUnits="userSpaceOnUse">
<stop stop-color="#89DDFB"/>
<stop offset="1" stop-color="#2F7BAC"/>
</linearGradient>
<linearGradient id="paint2_linear_998_10572" x1="15.4717" y1="43.1851" x2="67.8276" y2="45.7651" gradientUnits="userSpaceOnUse">
<stop stop-color="#89DDFB"/>
<stop offset="1" stop-color="#2F7BAC"/>
</linearGradient>
</defs>
</svg>
