<svg width="21" height="24" viewBox="0 0 21 24" fill="none" xmlns="http://www.w3.org/2000/svg">
<path d="M8.45685 1.23096L2.57306 4.62246C1.43308 5.27888 0.734375 6.48232 0.734375 7.79516V15.5993C0.734375 16.9121 1.43308 18.1155 2.57306 18.772L8.45685 22.127C9.59684 22.7834 10.9942 22.7834 12.1342 22.127L18.018 18.772C19.158 18.1155 19.8567 16.9121 19.8567 15.5993V7.75869C19.8567 6.44585 19.158 5.24241 18.018 4.58599L12.1342 1.23096C10.9942 0.611003 9.59684 0.611003 8.45685 1.23096Z" fill="white"/>
<path d="M2.9419 5.24242L4.78058 4.18485L4.04511 2.94495L2.20642 4.00251C0.845795 4.76833 0 6.19058 0 7.75869V15.5628C0 17.1309 0.845795 18.5896 2.20642 19.3554L8.09021 22.7105C9.45084 23.4763 11.1424 23.4763 12.5031 22.7105L18.3868 19.3554C19.7475 18.5896 20.5933 17.1309 20.5933 15.5628V14.6146H19.3062V9.07153C19.3062 7.94103 18.0927 7.24814 17.0998 7.79516L11.7676 10.8585C10.8482 11.369 10.2966 12.3536 10.2966 13.3747V14.3958C10.2966 17.8603 6.58249 20.0119 3.56705 18.4802L2.9419 18.1155C2.02255 17.605 1.47095 16.6204 1.47095 15.5993V7.75869C1.47095 6.73759 2.02255 5.75296 2.9419 5.24242Z" fill="url(#paint0_linear_998_10058)"/>
<path d="M3.30969 5.02368L2.57422 3.74731L8.09027 0.574612C9.4509 -0.191212 11.1425 -0.191212 12.5031 0.574612L18.3869 3.92965C19.7475 4.69547 20.5933 6.15418 20.5933 7.7223V15.5264C20.5933 17.0945 19.7475 18.5532 18.3869 19.319L18.0192 19.5379L17.2837 18.2615L17.6514 18.0427C18.5708 17.5321 19.1224 16.5475 19.1224 15.5264V7.75876C19.1224 6.7012 18.5708 5.75304 17.6514 5.24249L11.7676 1.88745C10.8483 1.3769 9.74509 1.3769 8.82575 1.88745L3.30969 5.02368ZM3.19937 12.2443C3.60388 12.9737 4.37613 13.3019 4.92774 12.9737C5.47934 12.6454 5.55289 11.8067 5.14838 11.0773C4.74387 10.348 3.97162 10.0198 3.42001 10.348C2.86841 10.6397 2.79486 11.5149 3.19937 12.2443ZM17.2469 10.3115C16.8056 10.0562 16.1437 10.3115 15.776 10.9315C15.4082 11.5514 15.5186 12.2078 15.9598 12.4631C16.4011 12.7184 17.0631 12.4631 17.4308 11.8432C17.7985 11.2232 17.6882 10.5668 17.2469 10.3115ZM15.3347 13.5207C14.8934 13.2654 14.2315 13.5207 13.8637 14.1406C13.496 14.7241 13.6063 15.417 14.0476 15.6723C14.4889 15.9275 15.1508 15.6723 15.5186 15.0523C15.8863 14.4324 15.8127 13.7759 15.3347 13.5207ZM12.1722 18.8814C12.6134 19.1367 13.2754 18.8814 13.6431 18.2615C14.0108 17.678 13.9005 16.9851 13.4592 16.7298C13.0179 16.4746 12.356 16.7298 11.9883 17.3498C11.6205 17.9697 11.7309 18.6262 12.1722 18.8814ZM8.56833 16.9851C8.16382 16.2558 7.39157 15.9275 6.83997 16.2558C6.28836 16.584 6.21481 17.4227 6.61933 18.1521C7.02384 18.8814 7.79608 19.2096 8.34769 18.8814C8.89929 18.5532 8.97284 17.7145 8.56833 16.9851Z" fill="url(#paint1_linear_998_10058)"/>
<path d="M13.2393 6.22707C13.2393 7.24817 11.9154 7.68579 10.2974 7.68579C8.67932 7.68579 7.35547 7.24817 7.35547 6.22707C7.35547 5.20598 8.67932 4.40369 10.2974 4.40369C11.9154 4.40369 13.2393 5.20598 13.2393 6.22707Z" fill="#FF003D"/>
<path d="M13.1657 5.82593C13.1657 6.26354 11.8786 6.59175 10.2974 6.59175C8.7161 6.59175 7.42902 6.26354 7.42902 5.8624V5.82593C7.39224 5.93533 7.35547 6.0812 7.35547 6.22707C7.35547 7.24817 8.67932 8.05046 10.2974 8.05046C11.9154 8.05046 13.2393 7.24817 13.2393 6.22707C13.2393 6.0812 13.2025 5.93533 13.1657 5.82593Z" fill="#FF1F00"/>
<defs>
<linearGradient id="paint0_linear_998_10058" x1="-1.39954" y1="8.07573" x2="21.9136" y2="9.78937" gradientUnits="userSpaceOnUse">
<stop stop-color="#F2974A"/>
<stop offset="1" stop-color="#FFF9DA"/>
</linearGradient>
<linearGradient id="paint1_linear_998_10058" x1="2.57422" y1="9.76905" x2="20.5933" y2="9.76905" gradientUnits="userSpaceOnUse">
<stop stop-color="#FF5F6D"/>
<stop offset="1" stop-color="#FFC371"/>
</linearGradient>
</defs>
</svg>
