<svg width="120" height="111" viewBox="0 0 120 111" fill="none" xmlns="http://www.w3.org/2000/svg">
<path d="M58.802 42.1563C59.1463 41.9567 59.5708 41.9551 59.9166 42.1523L117.014 74.7073C117.766 75.1363 117.766 76.2207 117.014 76.6497L59.9166 109.205C59.5708 109.402 59.1463 109.4 58.802 109.201L2.6643 76.6456C1.9215 76.2148 1.9215 75.1422 2.66431 74.7114L58.802 42.1563Z" stroke="#D15350" stroke-linecap="round" stroke-linejoin="round"/>
<path d="M18.6055 27.3926C18.6055 25.0837 19.8356 22.9497 21.8335 21.7925L56.2145 1.87875C58.2208 0.716678 60.6955 0.716677 62.7018 1.87875L97.0828 21.7925C99.0807 22.9497 100.311 25.0837 100.311 27.3926V67.2561C100.311 69.565 99.0807 71.6991 97.0828 72.8563L62.7018 92.77C60.6955 93.9321 58.2208 93.9321 56.2145 92.77L21.8335 72.8563C19.8356 71.6991 18.6055 69.5651 18.6055 67.2561V27.3926Z" fill="url(#paint0_linear_998_10543)"/>
<path d="M59.0547 52.9687C59.0547 47.9986 61.9006 43.4675 66.3776 41.3093L95.6709 27.1884C97.8193 26.1527 100.312 27.7182 100.312 30.1032V67.6644C100.312 69.9678 99.0875 72.0977 97.097 73.2569L63.919 92.5785C61.7618 93.8348 59.0547 92.2786 59.0547 89.7822L59.0547 70.5748L59.0547 52.9687Z" fill="url(#paint1_linear_998_10543)"/>
<path d="M18.6055 29.2844C18.6055 26.891 21.114 25.3259 23.2638 26.378L52.3342 40.6053C56.7734 42.7779 59.5879 47.2888 59.5879 52.2311V85.5584C59.5879 85.5584 59.6232 88.7307 60.3492 89.7985C60.9715 90.7136 61.5412 90.9975 62.2895 91.4128C63.0379 91.828 64.7164 92.2217 64.7164 92.2217L62.7784 93.24C60.7948 94.2822 58.4132 94.2242 56.4828 93.0866L21.7917 72.6447C19.8173 71.4813 18.6055 69.3606 18.6055 67.069L18.6055 29.2844Z" fill="url(#paint2_linear_998_10543)"/>
<path d="M86.6497 58.267C87.7049 58.2264 88.6156 58.3834 89.3818 58.7382C90.1474 59.077 90.7347 59.5667 91.1437 60.2075C91.5687 60.8476 91.7965 61.5673 91.8273 62.3667C91.8587 63.1821 91.6872 63.9253 91.3128 64.5962C90.9543 65.2665 90.4067 65.808 89.6701 66.2206C88.9328 66.6173 88.0366 66.836 86.9813 66.8766C85.9101 66.9179 84.9837 66.7694 84.2021 66.4313C83.4359 66.0765 82.8403 65.5791 82.4154 64.939C82.0064 64.2982 81.7862 63.5702 81.7548 62.7548C81.7363 62.2751 81.7907 61.8167 81.918 61.3795L77.8921 67.2268L72.3522 67.4402L79.4263 57.1763C78.5606 57.9782 77.3762 58.4081 75.8733 58.466C74.8021 58.5072 73.8757 58.3588 73.0941 58.0206C72.3279 57.6659 71.7323 57.1684 71.3074 56.5283C70.8984 55.8876 70.6782 55.1595 70.6468 54.3441C70.616 53.5447 70.7798 52.8099 71.1383 52.1396C71.5128 51.4686 72.0686 50.9349 72.8059 50.5382C73.5586 50.1249 74.4705 49.8976 75.5417 49.8564C76.5969 49.8157 77.5076 49.9728 78.2738 50.3275C79.0395 50.6663 79.6267 51.1561 80.0357 51.7968C80.4607 52.4369 80.6885 53.1567 80.7193 53.9561C80.744 54.5956 80.6465 55.1838 80.427 55.7207L84.5904 49.6999L90.1063 49.4875L83.3513 59.3068C84.1912 58.6659 85.2907 58.3194 86.6497 58.267ZM75.7569 55.4442C76.0927 55.4313 76.3912 55.2837 76.6526 55.0014C76.9299 54.7185 77.0621 54.4092 77.0491 54.0735C77.0362 53.7377 76.8812 53.4555 76.5842 53.2267C76.3032 52.9974 75.9948 52.8892 75.659 52.9021C75.2913 52.9163 74.9682 53.0488 74.6896 53.2997C74.427 53.55 74.3022 53.843 74.3152 54.1788C74.3287 54.5305 74.4766 54.8371 74.7589 55.0984C75.0565 55.3431 75.3892 55.4584 75.7569 55.4442ZM86.8649 63.8549C87.2007 63.8419 87.4992 63.6943 87.7605 63.4121C88.0379 63.1292 88.1701 62.8199 88.1571 62.4841C88.1442 62.1484 87.9892 61.8661 87.6922 61.6374C87.4111 61.408 87.1028 61.2998 86.767 61.3128C86.3993 61.3269 86.0761 61.4595 85.7976 61.7104C85.535 61.9607 85.4102 62.2537 85.4232 62.5894C85.4367 62.9412 85.5846 63.2477 85.8669 63.509C86.1645 63.7538 86.4972 63.869 86.8649 63.8549Z" fill="white"/>
<path d="M44.5082 58.6901C45.5641 58.7085 46.4646 58.9162 47.2098 59.3132C47.9553 59.6942 48.5143 60.216 48.8868 60.8786C49.2753 61.5415 49.4626 62.2728 49.4487 63.0727C49.4345 63.8886 49.2217 64.621 48.8104 65.2699C48.415 65.9192 47.8381 66.4292 47.0795 66.8001C46.3212 67.1549 45.4141 67.3231 44.3583 67.3048C43.2865 67.2861 42.3698 67.0861 41.6083 66.7048C40.8631 66.3078 40.2963 65.7778 39.9077 65.115C39.5352 64.4524 39.356 63.7132 39.3702 62.8973C39.3786 62.4174 39.4585 61.9627 39.61 61.5333L35.2637 67.1465L29.7205 67.05L37.3571 57.1974C36.4479 57.9497 35.2414 58.3128 33.7376 58.2866C32.6658 58.2679 31.7491 58.0679 30.9877 57.6866C30.2425 57.2896 29.6756 56.7597 29.2871 56.0968C28.9145 55.4342 28.7354 54.695 28.7496 53.8791C28.7635 53.0792 28.9681 52.3547 29.3635 51.7055C29.7749 51.0565 30.3597 50.5546 31.118 50.1998C31.8925 49.8292 32.8157 49.6532 33.8876 49.6719C34.9434 49.6903 35.8439 49.898 36.5891 50.295C37.3346 50.676 37.8936 51.1978 38.2662 51.8604C38.6547 52.5233 38.842 53.2546 38.8281 54.0545C38.8169 54.6944 38.6868 55.2762 38.4376 55.8L42.9309 50.0213L48.45 50.1174L41.1569 59.5439C42.0313 58.951 43.1484 58.6664 44.5082 58.6901ZM33.7903 55.263C34.1262 55.2689 34.4325 55.1382 34.7092 54.871C35.0019 54.604 35.1512 54.3026 35.157 53.9666C35.1629 53.6307 35.0239 53.3402 34.7401 53.0952C34.4723 52.8505 34.1705 52.7253 33.8345 52.7194C33.4666 52.713 33.1365 52.8273 32.8444 53.0622C32.5683 53.2975 32.4273 53.5831 32.4214 53.919C32.4153 54.271 32.5459 54.5853 32.8131 54.862C33.0966 55.1229 33.4223 55.2566 33.7903 55.263ZM44.4109 64.2812C44.7469 64.2871 45.0532 64.1564 45.3299 63.8892C45.6226 63.6222 45.7718 63.3208 45.7777 62.9848C45.7835 62.6489 45.6446 62.3584 45.3608 62.1134C45.093 61.8687 44.7911 61.7435 44.4552 61.7376C44.0873 61.7312 43.7572 61.8455 43.4651 62.0804C43.1889 62.3157 43.048 62.6013 43.0421 62.9372C43.036 63.2892 43.1665 63.6035 43.4338 63.8802C43.7173 64.1411 44.043 64.2748 44.4109 64.2812Z" fill="white"/>
<path d="M65.6322 23.8113C66.6882 23.8113 67.5922 24.0033 68.3442 24.3873C69.0962 24.7553 69.6642 25.2673 70.0482 25.9233C70.4482 26.5793 70.6482 27.3073 70.6482 28.1073C70.6482 28.9233 70.4482 29.6593 70.0482 30.3153C69.6642 30.9713 69.0962 31.4913 68.3442 31.8753C67.5922 32.2433 66.6882 32.4273 65.6322 32.4273C64.5602 32.4273 63.6402 32.2433 62.8722 31.8753C62.1202 31.4913 61.5442 30.9713 61.1442 30.3153C60.7602 29.6593 60.5682 28.9233 60.5682 28.1073C60.5682 27.6273 60.6402 27.1713 60.7842 26.7393L56.5362 32.4273H50.9922L58.4562 22.4433C57.5602 23.2113 56.3602 23.5953 54.8562 23.5953C53.7842 23.5953 52.8642 23.4113 52.0962 23.0433C51.3442 22.6593 50.7682 22.1393 50.3682 21.4833C49.9842 20.8273 49.7922 20.0913 49.7922 19.2753C49.7922 18.4753 49.9842 17.7473 50.3682 17.0913C50.7682 16.4353 51.3442 15.9233 52.0962 15.5553C52.8642 15.1713 53.7842 14.9793 54.8562 14.9793C55.9122 14.9793 56.8162 15.1713 57.5682 15.5553C58.3202 15.9233 58.8882 16.4353 59.2722 17.0913C59.6722 17.7473 59.8722 18.4753 59.8722 19.2753C59.8722 19.9153 59.7522 20.4993 59.5122 21.0273L63.9042 15.1713H69.4242L62.2962 24.7233C63.1602 24.1153 64.2722 23.8113 65.6322 23.8113ZM54.8562 20.5713C55.1922 20.5713 55.4962 20.4353 55.7682 20.1633C56.0562 19.8913 56.2002 19.5873 56.2002 19.2513C56.2002 18.9153 56.0562 18.6273 55.7682 18.3873C55.4962 18.1473 55.1922 18.0273 54.8562 18.0273C54.4882 18.0273 54.1602 18.1473 53.8722 18.3873C53.6002 18.6273 53.4642 18.9153 53.4642 19.2513C53.4642 19.6033 53.6002 19.9153 53.8722 20.1873C54.1602 20.4433 54.4882 20.5713 54.8562 20.5713ZM65.6322 29.4033C65.9682 29.4033 66.2722 29.2673 66.5442 28.9953C66.8322 28.7233 66.9762 28.4193 66.9762 28.0833C66.9762 27.7473 66.8322 27.4593 66.5442 27.2193C66.2722 26.9793 65.9682 26.8593 65.6322 26.8593C65.2642 26.8593 64.9362 26.9793 64.6482 27.2193C64.3762 27.4593 64.2402 27.7473 64.2402 28.0833C64.2402 28.4353 64.3762 28.7473 64.6482 29.0193C64.9362 29.2753 65.2642 29.4033 65.6322 29.4033Z" fill="white"/>
<defs>
<linearGradient id="paint0_linear_998_10543" x1="13.0527" y1="23.8754" x2="105.685" y2="29.6809" gradientUnits="userSpaceOnUse">
<stop stop-color="#D23838"/>
<stop offset="1" stop-color="#E78B88"/>
</linearGradient>
<linearGradient id="paint1_linear_998_10543" x1="56.2508" y1="42.7249" x2="103.125" y2="44.7175" gradientUnits="userSpaceOnUse">
<stop stop-color="#D23838"/>
<stop offset="1" stop-color="#E78B88"/>
</linearGradient>
<linearGradient id="paint2_linear_998_10543" x1="15.4717" y1="43.1851" x2="67.8276" y2="45.7651" gradientUnits="userSpaceOnUse">
<stop stop-color="#D23838"/>
<stop offset="1" stop-color="#E78B88"/>
</linearGradient>
</defs>
</svg>
