<svg width="118" height="109" viewBox="0 0 118 109" fill="none" xmlns="http://www.w3.org/2000/svg">
<path d="M58.1497 41.1563C58.494 40.9567 58.9185 40.9551 59.2642 41.1523L116.362 73.7073C117.114 74.1363 117.114 75.2207 116.362 75.6497L59.2642 108.205C58.9185 108.402 58.494 108.4 58.1497 108.201L2.01196 75.6456C1.26915 75.2148 1.26916 74.1422 2.01196 73.7114L58.1497 41.1563Z" stroke="url(#paint0_linear_14_3878)" stroke-linecap="round" stroke-linejoin="round"/>
<path d="M17.9531 26.3926C17.9531 24.0837 19.1832 21.9497 21.1812 20.7925L55.5621 0.878752C57.5685 -0.283322 60.0431 -0.283323 62.0495 0.878751L96.4304 20.7925C98.4284 21.9497 99.6585 24.0837 99.6585 26.3926V66.2561C99.6585 68.565 98.4284 70.6991 96.4304 71.8563L62.0495 91.77C60.0431 92.9321 57.5685 92.9321 55.5622 91.77L21.1812 71.8563C19.1832 70.6991 17.9531 68.5651 17.9531 66.2561V26.3926Z" fill="url(#paint1_linear_14_3878)"/>
<path d="M58.4023 51.9687C58.4023 46.9986 61.2482 42.4675 65.7253 40.3093L95.0185 26.1884C97.167 25.1527 99.6595 26.7182 99.6595 29.1032V66.6644C99.6595 68.9678 98.4352 71.0977 96.4447 72.2569L63.2666 91.5785C61.1094 92.8348 58.4023 91.2786 58.4023 88.7822L58.4023 69.5748L58.4023 51.9687Z" fill="url(#paint2_linear_14_3878)"/>
<path d="M17.9531 28.2844C17.9531 25.891 20.4616 24.3259 22.6114 25.378L51.6818 39.6053C56.121 41.7779 58.9355 46.2888 58.9355 51.2311V84.5584C58.9355 84.5584 58.9708 87.7307 59.6969 88.7985C60.3191 89.7136 60.8888 89.9975 61.6372 90.4128C62.3855 90.828 64.0641 91.2217 64.0641 91.2217L62.126 92.24C60.1424 93.2822 57.7609 93.2242 55.8304 92.0866L21.1393 71.6447C19.165 70.4813 17.9531 68.3606 17.9531 66.069L17.9531 28.2844Z" fill="url(#paint3_linear_14_3878)"/>
<path d="M80.9999 47.0358C82.5187 46.9773 83.9275 47.1792 85.2263 47.6416C86.5411 48.1033 87.5917 48.7753 88.3783 49.6577C89.1648 50.5401 89.5809 51.5729 89.6264 52.756C89.6634 53.7153 89.4633 54.5476 89.0261 55.2529C88.5889 55.9583 88.0189 56.5407 87.3161 57.0001L86.0728 57.7685C85.4 58.1787 84.9545 58.46 84.7363 58.6126C84.3771 58.8506 84.1309 59.1082 83.9975 59.3856C83.864 59.6629 83.8044 59.9854 83.8186 60.3532L78.3266 60.5647C78.2798 59.3496 78.5285 58.3233 79.0727 57.4857C79.6162 56.6322 80.5558 55.8754 81.8914 55.2155C82.4885 54.9203 82.9167 54.6076 83.1762 54.2774C83.4511 53.9306 83.5805 53.5493 83.5645 53.1336C83.5466 52.6699 83.3074 52.2789 82.8468 51.9604C82.4022 51.6412 81.8441 51.4946 81.1726 51.5205C80.2613 51.5556 79.5584 51.8068 79.0641 52.2742C78.5857 52.741 78.3622 53.382 78.3936 54.1974C78.4059 54.5172 78.468 54.8831 78.58 55.2951C77.2868 54.9766 75.3691 54.8664 72.827 54.9643C72.8055 54.821 72.7898 54.6215 72.7799 54.3657C72.7282 53.0226 73.0337 51.81 73.6966 50.7277C74.3748 49.6287 75.342 48.7589 76.5983 48.118C77.8699 47.4606 79.3371 47.0999 80.9999 47.0358ZM84.0763 66.4197L78.5124 66.6341L78.348 62.3652L83.9118 62.1509L84.0763 66.4197Z" fill="white"/>
<path d="M39.4379 47.1956C40.9577 47.2221 42.353 47.5024 43.6239 48.0366C44.9108 48.5711 45.9223 49.3008 46.6583 50.2257C47.3943 51.1507 47.752 52.205 47.7314 53.3889C47.7147 54.3487 47.4684 55.1686 46.9925 55.8484C46.5166 56.5282 45.9149 57.0778 45.1875 57.4972L43.9032 58.195C43.2086 58.5669 42.7481 58.823 42.5216 58.963C42.1498 59.1806 41.8895 59.4241 41.7408 59.6936C41.5921 59.963 41.5145 60.2817 41.5081 60.6497L36.0129 60.554C36.0341 59.3382 36.3397 58.3274 36.9298 57.5215C37.5202 56.6997 38.5006 55.9966 39.871 55.4124C40.4836 55.151 40.9287 54.8627 41.2063 54.5475C41.5001 54.2166 41.6506 53.8431 41.6578 53.4272C41.6659 52.9632 41.4489 52.5594 41.0068 52.2157C40.5807 51.8722 40.0317 51.6946 39.3598 51.6829C38.448 51.6671 37.7322 51.8786 37.2125 52.3176C36.7087 52.7569 36.4498 53.3845 36.4356 54.2004C36.43 54.5204 36.4716 54.8891 36.5603 55.3068C35.2869 54.9165 33.3784 54.6993 30.8348 54.655C30.8213 54.5108 30.8168 54.3106 30.8213 54.0547C30.8446 52.7109 31.2175 51.5172 31.9397 50.4736C32.6783 49.4143 33.6926 48.5998 34.9827 48.0302C36.2891 47.4448 37.7742 47.1666 39.4379 47.1956ZM41.4264 66.7212L35.8593 66.6243L35.9336 62.3529L41.5008 62.4498L41.4264 66.7212Z" fill="white"/>
<path d="M60.38 12.3953C61.9 12.3953 63.3 12.6513 64.58 13.1633C65.876 13.6753 66.9 14.3873 67.652 15.2993C68.404 16.2113 68.78 17.2593 68.78 18.4433C68.78 19.4033 68.548 20.2273 68.084 20.9153C67.62 21.6033 67.028 22.1633 66.308 22.5953L65.036 23.3153C64.348 23.6993 63.892 23.9633 63.668 24.1073C63.3 24.3313 63.044 24.5793 62.9 24.8513C62.756 25.1233 62.684 25.4433 62.684 25.8113H57.188C57.188 24.5953 57.476 23.5793 58.052 22.7633C58.628 21.9313 59.596 21.2113 60.956 20.6033C61.564 20.3313 62.004 20.0353 62.276 19.7153C62.564 19.3793 62.708 19.0033 62.708 18.5873C62.708 18.1233 62.484 17.7233 62.036 17.3873C61.604 17.0513 61.052 16.8833 60.38 16.8833C59.468 16.8833 58.756 17.1073 58.244 17.5553C57.748 18.0033 57.5 18.6353 57.5 19.4513C57.5 19.7713 57.548 20.1393 57.644 20.5553C56.364 20.1873 54.452 20.0033 51.908 20.0033C51.892 19.8593 51.884 19.6593 51.884 19.4033C51.884 18.0593 52.236 16.8593 52.94 15.8033C53.66 14.7313 54.66 13.8993 55.94 13.3073C57.236 12.6993 58.716 12.3953 60.38 12.3953ZM62.708 31.8833H57.14V27.6113H62.708V31.8833Z" fill="white"/>
<defs>
<linearGradient id="paint0_linear_14_3878" x1="-8.78911" y1="57.6228" x2="125.344" y2="74.5589" gradientUnits="userSpaceOnUse">
<stop stop-color="#F2974A"/>
<stop offset="1" stop-color="#F4E077"/>
</linearGradient>
<linearGradient id="paint1_linear_14_3878" x1="12.4003" y1="22.8754" x2="105.033" y2="28.6809" gradientUnits="userSpaceOnUse">
<stop stop-color="#F2974A"/>
<stop offset="1" stop-color="#F4E077"/>
</linearGradient>
<linearGradient id="paint2_linear_14_3878" x1="55.5985" y1="41.7249" x2="102.472" y2="43.7175" gradientUnits="userSpaceOnUse">
<stop stop-color="#F2974A"/>
<stop offset="1" stop-color="#F4E077"/>
</linearGradient>
<linearGradient id="paint3_linear_14_3878" x1="14.8194" y1="42.1851" x2="67.1753" y2="44.7651" gradientUnits="userSpaceOnUse">
<stop stop-color="#F2974A"/>
<stop offset="1" stop-color="#F4E077"/>
</linearGradient>
</defs>
</svg>
