<svg width="16" height="20" viewBox="0 0 16 20" fill="none" xmlns="http://www.w3.org/2000/svg">
<path d="M9.87499 0C5.61278 2.4558 6.12499 9.375 6.12499 9.375C6.12499 9.375 4.25 8.74999 4.25 5.93751C2.01301 7.23465 0.5 9.72785 0.5 12.5C0.5 16.6421 3.85786 20 8.00001 20C12.1422 20 15.5 16.6421 15.5 12.5C15.5 6.40626 9.87499 5.15624 9.87499 0V0ZM8.6588 17.4157C7.1517 17.7915 5.62527 16.8744 5.24944 15.3672C4.87369 13.8601 5.79081 12.3336 7.298 11.9578C10.9366 11.0506 11.3926 9.00447 11.3926 9.00447C11.3926 9.00447 13.2071 16.2817 8.6588 17.4157Z" fill="url(#paint0_linear_1569_15927)"/>
<defs>
<linearGradient id="paint0_linear_1569_15927" x1="-0.519419" y1="5.04505" x2="16.503" y2="5.97193" gradientUnits="userSpaceOnUse">
<stop stop-color="#F2974A"/>
<stop offset="1" stop-color="#F4E077"/>
</linearGradient>
</defs>
</svg>
