<svg width="11" height="11" viewBox="0 0 11 11" fill="none" xmlns="http://www.w3.org/2000/svg">
<path opacity="0.663713" d="M9.69349 1.97608L6.65367 5.01624L9.69349 8.05625C10.1456 8.50858 10.1456 9.24131 9.69349 9.69364C9.46757 9.91956 9.17137 10.0326 8.87532 10.0326C8.57878 10.0326 8.28255 9.91973 8.0568 9.69364L5.01632 6.65328L1.97607 9.69361C1.75017 9.91953 1.45395 10.0326 1.15764 10.0326C0.861409 10.0326 0.565385 9.9197 0.339292 9.69361C-0.112867 9.24148 -0.112867 8.50873 0.339292 8.05622L3.37903 5.01621L0.339119 1.97608C-0.11304 1.52392 -0.11304 0.791023 0.339119 0.338862C0.791191 -0.112954 1.52365 -0.112954 1.97589 0.338862L5.01629 3.37902L8.05646 0.338862C8.50879 -0.112954 9.24133 -0.112954 9.69332 0.338862C10.1456 0.791023 10.1456 1.52392 9.69349 1.97608Z" fill="url(#paint0_linear_1310_14631)"/>
<defs>
<linearGradient id="paint0_linear_1310_14631" x1="-0.681828" y1="2.53075" x2="10.6773" y2="3.35543" gradientUnits="userSpaceOnUse">
<stop stop-color="#F2974A"/>
<stop offset="1" stop-color="#F4E077"/>
</linearGradient>
</defs>
</svg>
