<svg width="180" height="37" viewBox="0 0 180 37" fill="none" xmlns="http://www.w3.org/2000/svg">
<path d="M49.127 30.2477H53.2329V31.0899H50.0202V33.1519H53.0168V33.9796H50.0202V36.8258H49.127V30.2477Z" fill="#40B7BC"/>
<path d="M57.037 30.2477V34.2845C57.037 34.4878 57.0658 34.7057 57.1235 34.9235C57.1811 35.1413 57.2675 35.3446 57.3972 35.5334C57.5269 35.7221 57.6997 35.8674 57.9014 35.9835C58.1175 36.0997 58.3624 36.1578 58.6794 36.1578C58.9963 36.1578 59.2413 36.0997 59.4574 35.9835C59.6591 35.8674 59.8319 35.7076 59.9616 35.5334C60.0913 35.3446 60.1777 35.1413 60.2353 34.9235C60.293 34.7057 60.3218 34.4878 60.3218 34.2845V30.2477H61.2006V34.4152C61.2006 34.7928 61.143 35.1558 61.0133 35.4608C60.8836 35.7657 60.7108 36.0416 60.4803 36.2739C60.2497 36.5063 59.9904 36.6805 59.6735 36.7967C59.3709 36.9274 59.0396 36.9855 58.6794 36.9855C58.3192 36.9855 57.9879 36.9274 57.6853 36.7967C57.3828 36.6805 57.1091 36.4918 56.8785 36.2739C56.648 36.0416 56.4752 35.7657 56.3455 35.4608C56.2158 35.1558 56.1582 34.7928 56.1582 34.4152V30.2477H57.037Z" fill="#40B7BC"/>
<path d="M64.0527 35.998L67.7697 31.0899H64.168V30.2477H68.879V31.0899L65.1765 35.998H68.9367V36.8258H64.0527V35.998Z" fill="#40B7BC"/>
<path d="M72.6686 30.2477V34.2845C72.6686 34.4878 72.6974 34.7057 72.7551 34.9235C72.8127 35.1413 72.8991 35.3446 73.0288 35.5334C73.1585 35.7221 73.3313 35.8674 73.533 35.9835C73.7347 36.0997 73.9941 36.1578 74.311 36.1578C74.6135 36.1578 74.8729 36.0997 75.089 35.9835C75.2907 35.8674 75.4636 35.7076 75.5932 35.5334C75.7229 35.3446 75.8093 35.1413 75.8669 34.9235C75.9246 34.7057 75.9534 34.4878 75.9534 34.2845V30.2477H76.8322V34.4152C76.8322 34.7928 76.7602 35.1558 76.6305 35.4608C76.5009 35.7657 76.328 36.0416 76.0975 36.2739C75.867 36.5063 75.6076 36.6805 75.2907 36.7967C74.9881 36.9274 74.6568 36.9855 74.2966 36.9855C73.9364 36.9855 73.6051 36.9274 73.3025 36.7967C73 36.6805 72.7262 36.4918 72.4957 36.2739C72.2652 36.0416 72.0923 35.7657 71.9627 35.4608C71.833 35.1558 71.7754 34.7928 71.7754 34.4152V30.2477H72.6686Z" fill="#40B7BC"/>
<path d="M82.2781 30.2477H83.1569V34.9525C83.1569 35.3591 83.0849 35.7076 82.9552 35.969C82.8256 36.2304 82.6671 36.4482 82.4654 36.5934C82.2781 36.7386 82.062 36.8548 81.8459 36.9129C81.6298 36.971 81.4281 37 81.2408 37C80.7798 37 80.3908 36.8838 80.0738 36.637C79.7569 36.4046 79.5552 36.0416 79.4688 35.5479L80.3332 35.3446C80.3764 35.5914 80.4772 35.7802 80.6357 35.9254C80.7942 36.0706 80.9959 36.1433 81.2408 36.1433C81.4569 36.1433 81.6442 36.0997 81.7739 36.0126C81.9035 35.9254 82.0044 35.8093 82.0764 35.6786C82.1484 35.5479 82.2061 35.3736 82.2205 35.1994C82.2493 35.0251 82.2637 34.8363 82.2637 34.6476V30.2477H82.2781Z" fill="#40B7BC"/>
<path d="M87.4062 30.2477H86.5273V36.8258H87.4062V30.2477Z" fill="#40B7BC"/>
<path d="M92.981 30.2477H93.7878L96.5827 36.8258H95.5454L94.8971 35.1994H91.7852L91.1369 36.8258H90.0996L92.981 30.2477ZM94.5658 34.4152L93.3556 31.3948H93.3412L92.1022 34.4152H94.5658Z" fill="#40B7BC"/>
<path d="M104.551 30.2477H103.672V36.8258H104.551V30.2477Z" fill="#40B7BC"/>
<path d="M108.08 30.2477H109.233L112.834 35.6641H112.849V30.2477H113.742V36.8258H112.604L108.973 31.4239H108.959V36.8258H108.08V30.2477Z" fill="#40B7BC"/>
<path d="M117.444 35.4608C117.602 35.6931 117.804 35.8819 118.063 35.9981C118.308 36.1142 118.568 36.1723 118.827 36.1723C118.971 36.1723 119.129 36.1433 119.273 36.0997C119.432 36.0561 119.562 35.9835 119.691 35.8964C119.821 35.8093 119.922 35.6931 119.994 35.5479C120.066 35.4172 120.109 35.2575 120.109 35.0687C120.109 34.8073 120.023 34.6185 119.864 34.4878C119.706 34.3572 119.504 34.241 119.273 34.1539C119.043 34.0667 118.784 33.9796 118.495 33.8925C118.222 33.8054 117.962 33.6892 117.717 33.544C117.487 33.3988 117.285 33.1955 117.127 32.9486C116.968 32.7017 116.882 32.3532 116.882 31.9321C116.882 31.7433 116.925 31.54 117.012 31.3222C117.098 31.1044 117.228 30.9156 117.401 30.7269C117.573 30.5526 117.804 30.3929 118.092 30.2767C118.366 30.1605 118.712 30.1024 119.101 30.1024C119.461 30.1024 119.792 30.146 120.123 30.2477C120.455 30.3493 120.729 30.5526 120.988 30.8575L120.268 31.511C120.152 31.3367 119.994 31.2061 119.792 31.0899C119.59 30.9882 119.36 30.9302 119.101 30.9302C118.856 30.9302 118.654 30.9592 118.481 31.0318C118.323 31.1044 118.193 31.177 118.092 31.2787C117.991 31.3803 117.919 31.482 117.89 31.6127C117.847 31.7288 117.833 31.845 117.833 31.9321C117.833 32.208 117.905 32.4258 118.078 32.5711C118.236 32.7163 118.438 32.847 118.668 32.9341C118.899 33.0357 119.158 33.1083 119.446 33.1809C119.72 33.2535 119.979 33.3552 120.224 33.4859C120.469 33.6166 120.657 33.7908 120.815 34.0232C120.973 34.2555 121.06 34.5605 121.06 34.9525C121.06 35.272 121.002 35.5479 120.887 35.8093C120.772 36.0707 120.613 36.274 120.397 36.4482C120.196 36.6225 119.965 36.7532 119.677 36.8403C119.403 36.9419 119.101 36.9855 118.798 36.9855C118.38 36.9855 117.977 36.9129 117.602 36.7677C117.228 36.6225 116.925 36.3901 116.709 36.0852L117.444 35.4608Z" fill="#40B7BC"/>
<path d="M125.584 31.0899H123.48V30.2477H128.581V31.0899H126.477V36.8258H125.584V31.0899Z" fill="#40B7BC"/>
<path d="M132.24 30.2477H131.361V36.8258H132.24V30.2477Z" fill="#40B7BC"/>
<path d="M137.125 31.0899H135.021V30.2477H140.121V31.0899H138.018V36.8258H137.125V31.0899Z" fill="#40B7BC"/>
<path d="M143.666 30.2477V34.2845C143.666 34.4878 143.695 34.7057 143.752 34.9235C143.81 35.1413 143.896 35.3446 144.026 35.5334C144.156 35.7221 144.329 35.8674 144.53 35.9835C144.732 36.0997 145.006 36.1578 145.308 36.1578C145.611 36.1578 145.87 36.0997 146.086 35.9835C146.288 35.8674 146.461 35.7076 146.591 35.5334C146.72 35.3446 146.807 35.1413 146.864 34.9235C146.922 34.7057 146.951 34.4878 146.951 34.2845V30.2477H147.83V34.4152C147.83 34.7928 147.757 35.1558 147.642 35.4608C147.513 35.7657 147.34 36.0416 147.109 36.2739C146.879 36.5063 146.619 36.6805 146.302 36.7967C146 36.9274 145.668 36.9855 145.308 36.9855C144.948 36.9855 144.617 36.9274 144.314 36.7967C144.012 36.6805 143.738 36.4918 143.507 36.2739C143.277 36.0416 143.104 35.7657 142.974 35.4608C142.845 35.1558 142.787 34.7928 142.787 34.4152V30.2477H143.666Z" fill="#40B7BC"/>
<path d="M152.598 31.0899H150.494V30.2477H155.58V31.0899H153.476V36.8258H152.598V31.0899Z" fill="#40B7BC"/>
<path d="M159.238 30.2477H158.359V36.8258H159.238V30.2477Z" fill="#40B7BC"/>
<path d="M165.766 37C165.262 37 164.815 36.9129 164.397 36.7386C163.98 36.5644 163.619 36.3175 163.317 36.0126C163.014 35.7076 162.784 35.3301 162.611 34.9235C162.438 34.5024 162.352 34.0377 162.352 33.5585C162.352 33.0648 162.438 32.6146 162.611 32.1935C162.784 31.7724 163.014 31.4094 163.317 31.1044C163.619 30.7995 163.98 30.5526 164.397 30.3784C164.815 30.2041 165.276 30.117 165.766 30.117C166.27 30.117 166.717 30.2041 167.135 30.3784C167.552 30.5526 167.913 30.7995 168.215 31.1044C168.518 31.4094 168.748 31.7869 168.921 32.1935C169.094 32.6146 169.18 33.0648 169.18 33.5585C169.18 34.0522 169.094 34.5024 168.921 34.9235C168.748 35.3446 168.518 35.7076 168.215 36.0126C167.913 36.3175 167.567 36.5644 167.135 36.7386C166.717 36.9129 166.27 37 165.766 37ZM165.766 36.1578C166.141 36.1578 166.472 36.0852 166.774 35.9545C167.077 35.8093 167.336 35.635 167.552 35.3882C167.769 35.1558 167.927 34.8799 168.057 34.5605C168.172 34.241 168.23 33.907 168.23 33.544C168.23 33.1809 168.172 32.847 168.057 32.5275C167.941 32.208 167.769 31.9321 167.552 31.6998C167.336 31.4674 167.077 31.2787 166.774 31.1335C166.472 30.9882 166.126 30.9302 165.766 30.9302C165.391 30.9302 165.06 31.0028 164.758 31.1335C164.455 31.2787 164.196 31.4674 163.98 31.6998C163.763 31.9321 163.605 32.208 163.475 32.5275C163.36 32.847 163.302 33.1809 163.302 33.544C163.302 33.907 163.36 34.241 163.475 34.5605C163.591 34.8799 163.763 35.1558 163.98 35.3882C164.196 35.6205 164.455 35.8093 164.758 35.9545C165.06 36.0852 165.391 36.1578 165.766 36.1578Z" fill="#40B7BC"/>
<path d="M172.291 30.2477H173.444L177.045 35.6641H177.06V30.2477H177.939V36.8258H176.815L173.184 31.4239H173.17V36.8258H172.291V30.2477Z" fill="#40B7BC"/>
<path d="M68.4178 2.41053V7.05731H66.2712V4.2402H51.1871V7.04279H49.127V2.396H57.627C57.3965 1.85872 57.1228 1.32144 56.8923 0.856758L59.1974 0.363037C59.5431 0.972927 59.961 1.78611 60.2347 2.38148H68.4178V2.41053ZM50.4956 13.5773H67.1212V21.9125H65.0034V21.2881H52.527V21.9851H50.4956V13.5773ZM52.0804 8.03023H65.3059V12.4447H52.0804V8.03023ZM65.1474 6.97018H52.3109V5.43093H65.1474V6.97018ZM52.527 16.6849H57.5982V15.2037H52.527V16.6849ZM52.527 19.6617H57.5982V18.1079H52.527V19.6617ZM54.0397 10.978H63.2313V9.51139H54.0397V10.978ZM65.0034 15.2037H59.6872V16.6849H65.0034V15.2037ZM65.0034 18.1079H59.6872V19.6617H65.0034V18.1079Z" fill="#40B7BC"/>
<path d="M87.5937 19.3422C88.775 19.5746 90.0429 19.6472 91.3971 19.6472C92.2471 19.6472 95.9065 19.6472 97.0158 19.6036C96.6988 20.1119 96.3531 21.1138 96.2378 21.7237H91.2818C86.542 21.7237 82.9835 20.8379 80.736 17.0624C80.0012 19.0083 78.9207 20.7508 77.3936 21.9561C77.019 21.5204 76.3131 20.8234 75.8809 20.4894C78.4741 18.471 79.5402 14.6229 79.886 11.3701L82.1191 11.646C81.975 12.5754 81.8021 13.5483 81.5428 14.5067C82.4216 16.6413 83.7326 17.9482 85.4182 18.6888V9.77277H78.719V1.74255H94.5378V9.77277H87.5937V13.04H95.2005V15.0585H87.5937V19.3422ZM80.8224 7.72529H92.2759V3.80456H80.8224V7.72529Z" fill="#40B7BC"/>
<path d="M122.171 10.3246C121.177 11.1378 120.053 11.951 118.929 12.7351C119.923 15.6393 121.94 18.1225 124.692 19.2406C124.231 19.6181 123.583 20.4459 123.295 20.9831C120.456 19.6617 118.454 17.0624 117.258 13.8387C116.956 14.0275 116.639 14.2163 116.336 14.3905C117.071 17.2657 116.523 20.0247 115.27 21.0122C114.535 21.7382 113.872 21.9415 112.778 21.9415C112.244 21.9706 111.553 21.9415 110.861 21.898C110.818 21.3171 110.631 20.4749 110.285 19.8795C111.092 19.9521 111.827 19.9957 112.331 19.9957C112.907 19.9957 113.325 19.9231 113.714 19.4875C114.261 19.0228 114.607 17.774 114.521 16.1911C111.899 18.137 108.11 19.9812 104.94 20.9251C104.71 20.3878 104.234 19.6036 103.816 19.1389C107.461 18.2822 111.884 16.2202 114.161 14.1872C114.017 13.7516 113.887 13.3305 113.671 12.8803C111.394 14.3905 107.937 15.9443 105.272 16.801C105.012 16.3073 104.58 15.5667 104.191 15.1021C107.029 14.4486 110.818 12.8803 112.821 11.4572C112.561 11.0797 112.273 10.7167 111.928 10.3391C109.896 11.4718 107.591 12.343 105.43 12.9529C105.228 12.5318 104.666 11.646 104.306 11.2394C107.044 10.6295 109.997 9.61304 112.115 8.26257H107.433V6.40386H120.471V8.26257H115.011C114.55 8.68369 114.045 9.0322 113.512 9.39523C114.506 10.3391 115.212 11.4572 115.717 12.6189C117.373 11.5008 119.217 10.0632 120.413 8.90151L122.171 10.3246ZM106.453 7.56556H104.378V2.62835H112.806C112.605 2.09107 112.345 1.58282 112.1 1.11814L114.333 0.464691C114.751 1.11814 115.14 1.94585 115.414 2.62835H123.727V7.58008H121.537V4.57419H106.453V7.56556Z" fill="#40B7BC"/>
<path d="M136.433 13.3014C136.231 12.6915 135.785 11.7041 135.324 10.7747V21.9706H133.48V11.9074C132.932 13.9258 132.284 15.8281 131.592 17.0914C131.434 16.438 130.987 15.4941 130.699 14.9278C131.78 13.1562 132.846 9.85989 133.364 7.02825H131.247V5.03885H133.48V0.667969H135.324V5.03885H137.053V7.04278H135.324V8.32064C135.857 9.09026 137.139 11.2394 137.413 11.8057L136.433 13.3014ZM150.696 14.9568C150.033 16.3218 149.111 17.5126 148.031 18.5581C148.607 19.3277 149.255 19.7924 150.019 19.865C150.451 19.9086 150.725 19.0809 150.912 17.4254C151.229 17.8175 151.949 18.3257 152.295 18.5145C151.82 21.23 151.013 22.0141 150.033 21.9706C148.607 21.8544 147.469 21.1138 146.561 19.7924C145.409 20.6201 144.126 21.3462 142.715 21.8834C142.455 21.4914 141.951 20.867 141.591 20.4894C143.132 19.9376 144.544 19.168 145.697 18.2386C145.207 17.1205 144.804 15.7845 144.472 14.2162H140.971C140.971 14.4486 140.971 14.71 140.943 14.9423C141.994 15.7845 143.334 16.8881 143.982 17.6142L142.671 18.9211C142.21 18.3838 141.418 17.6433 140.626 16.9462C140.208 18.7323 139.243 20.562 137.355 22.0141C137.081 21.6366 136.318 20.9686 135.929 20.7363C138.594 18.7904 139.127 16.2057 139.156 14.2308H137.543V12.5173H144.155C143.622 9.25 143.32 5.25667 143.19 0.813181H144.991C145.106 5.3438 145.409 9.35165 145.985 12.5173H148.751C148.247 12.0816 147.627 11.617 147.094 11.2684L148.031 10.4117C146.921 10.615 146.619 10.7166 146.388 10.8328C146.302 10.5133 146.043 9.67111 145.855 9.25C146.23 9.16287 146.576 8.78532 146.979 8.20447C147.21 7.92857 147.699 7.20251 148.218 6.31672C146.749 6.50549 146.36 6.62166 146.129 6.75235C146.043 6.40384 145.783 5.6197 145.596 5.22763C145.87 5.15502 146.129 4.85007 146.403 4.44348C146.662 4.05141 147.512 2.42503 147.915 0.885787L149.5 1.32142C148.967 2.62833 148.276 3.96428 147.613 5.00981L148.967 4.8646C149.241 4.35635 149.5 3.86263 149.702 3.33987L151.287 3.92072C150.336 5.73587 149.198 7.5365 148.06 8.95957L149.918 8.72723C149.76 8.33516 149.601 7.89953 149.457 7.52198L150.696 7.17347C151.157 8.24804 151.69 9.68563 151.892 10.5569L150.552 11.0216C150.48 10.7457 150.393 10.3972 150.293 10.0196C149.414 10.1648 148.751 10.252 148.218 10.3391C148.924 10.8038 149.875 11.4572 150.336 11.9219L149.731 12.5027H151.589V14.2017H146.244C146.504 15.2037 146.749 16.133 147.08 16.8736C147.786 16.0895 148.42 15.2037 148.852 14.2743L150.696 14.9568ZM142.124 11.3556C142.081 11.0942 142.037 10.8038 141.965 10.4698C138.897 10.8909 138.378 11.0216 138.047 11.2104C137.96 10.8909 137.73 10.0777 137.514 9.65659C137.888 9.58399 138.277 9.19191 138.695 8.61106C138.926 8.33516 139.43 7.6091 139.992 6.70879C138.465 6.91209 138.076 7.02825 137.831 7.17347C137.744 6.82496 137.485 6.04081 137.326 5.63422C137.6 5.56161 137.903 5.28571 138.176 4.80651C138.479 4.3854 139.43 2.64285 139.934 0.92935L141.519 1.39403C140.899 2.83163 140.136 4.29827 139.372 5.43092L140.798 5.28571C141.072 4.79199 141.332 4.28375 141.562 3.77551L143.104 4.35635C142.109 6.14246 140.914 7.95761 139.761 9.36617L141.605 9.13383C141.476 8.69819 141.303 8.24803 141.173 7.85596L142.455 7.50745C142.916 8.58202 143.377 10.0196 143.565 10.8764L142.124 11.3556Z" fill="#40B7BC"/>
<path d="M165.477 14.6083C165.175 13.8678 164.512 12.5899 163.907 11.5008V21.9415H161.933V12.1107C161.241 14.3179 160.391 16.3654 159.469 17.6868C159.268 17.106 158.763 16.2928 158.461 15.8281C159.815 13.9258 161.126 10.4843 161.76 7.53652H158.951V5.54711H161.947V0.653473H163.936V5.54711H166.399V7.53652H163.936V8.90151C164.584 9.75826 166.284 12.3866 166.658 13.011L165.477 14.6083ZM179.999 18.2532H178.645V19.7924C178.645 20.7653 178.443 21.259 177.766 21.5785C177.103 21.8399 176.066 21.8544 174.582 21.8544C174.496 21.3462 174.237 20.6056 174.006 20.1119C174.971 20.1554 175.965 20.1554 176.268 20.1409C176.542 20.1409 176.642 20.0538 176.642 19.7634V18.2532H169.439V21.8544H167.48V18.2532H166.01V16.6268H167.48V10.8183H171.989V9.68565H166.385V8.08832H169.41V6.78142H167.379V5.27121H169.41V3.99335H166.903V2.43958H169.41V0.653473H171.413V2.43958H174.568V0.653473H176.57V2.43958H179.308V3.99335H176.57V5.27121H178.962V6.78142H176.57V8.08832H179.769V9.68565H173.92V10.8183H178.645V16.6268H179.999V18.2532ZM169.425 13.6935H171.975V12.3721H169.425V13.6935ZM169.425 16.6268H171.975V15.1892H169.425V16.6268ZM171.398 5.27121H174.553V3.99335H171.398V5.27121ZM171.398 8.0738H174.553V6.76689H171.398V8.0738ZM173.92 13.6935H176.642V12.3721H173.92V13.6935ZM176.628 15.1892H173.905V16.6268H176.628V15.1892Z" fill="#40B7BC"/>
<path d="M16.5683 36.6515L0.605469 27.4886V9.42426L3.21312 7.79788L5.35975 9.36617L3.09787 10.7892V26.022L16.5395 33.7327L22.9074 29.9427L21.0777 28.8681L16.6692 31.511L4.52415 24.3956L11.209 20.1409L21.0633 25.9494L23.7718 24.323L4.25042 11.98L9.45131 9.11931L5.38857 6.47645L16.6836 0.348511L32.3871 9.49686V27.5467L30.5142 28.7665L28.2379 27.3724L29.8947 26.2108V10.9635L16.6404 3.23823L10.3013 6.67975L11.9437 7.75432L16.698 5.1405L28.6269 12.2995L21.1785 16.7429L11.8429 10.6586L9.17758 12.1252L28.5693 24.3956L23.5413 27.416L27.8489 29.9572L16.5683 36.6515ZM9.35047 24.323L16.6692 28.6068L18.6285 27.4305L11.2666 23.1032L9.35047 24.323ZM14.3353 9.29356L21.2218 13.7661L23.7286 12.2704L16.6404 8.0157L14.3353 9.29356Z" fill="#40B7BC"/>
</svg>
