<svg width="15" height="24" viewBox="0 0 15 24" fill="none" xmlns="http://www.w3.org/2000/svg">
<path d="M7.3063 0.035468V0.0472906C7.31812 0.106404 7.31812 0.17734 7.31812 0.248276V8.77241C7.3063 8.81971 7.27083 8.83153 7.23536 8.85517C6.98709 8.9734 6.75064 9.0798 6.50236 9.18621C6.1595 9.3399 5.80482 9.50542 5.46197 9.65911L4.22059 10.2266C3.87773 10.3803 3.53487 10.534 3.20384 10.6877C2.80187 10.8768 2.38807 11.0542 1.9861 11.2434C1.64325 11.397 1.30039 11.5626 0.945709 11.7163C0.661965 11.8463 0.378221 11.9645 0.1063 12.0946C0.0826547 12.1064 0.0590094 12.1182 0.0353641 12.1182C0.0235414 12.1182 0.0235414 12.1182 0.0117188 12.1064L0.330931 11.5744C0.945709 10.5576 1.54866 9.55271 2.16344 8.53596C2.81369 7.44828 3.47576 6.36059 4.126 5.27291C4.72896 4.26798 5.34374 3.26305 5.94669 2.25813C6.38413 1.52512 6.83339 0.792118 7.27083 0.0591133C7.28266 0.035468 7.29448 0.0236453 7.29448 0H7.3063C7.29448 0.0118227 7.3063 0.0236453 7.3063 0.035468Z" fill="url(#paint0_linear_998_12769)"/>
<path d="M14.566 12.1065L14.5778 12.1183L12.8399 13.1469L7.37778 16.3744C7.35414 16.3863 7.33049 16.3981 7.31867 16.4099C7.2832 16.4099 7.2832 16.3744 7.2832 16.3626V16.2562V8.94981C7.2832 8.91434 7.2832 8.86705 7.29503 8.83158C7.30685 8.78429 7.34232 8.79612 7.37778 8.80794C7.53148 8.87887 7.697 8.94981 7.85069 9.02075C8.31177 9.23355 8.77286 9.44636 9.23394 9.64735C9.63591 9.82469 10.0261 10.0138 10.428 10.1912C10.83 10.3685 11.232 10.5577 11.6339 10.735C11.9768 10.8887 12.3315 11.0542 12.6743 11.2079C13.0172 11.3616 13.3719 11.5271 13.7147 11.6808C13.9867 11.7991 14.2586 11.9291 14.5305 12.0473C14.5305 12.0828 14.5423 12.0946 14.566 12.1065Z" fill="url(#paint1_linear_998_12769)"/>
<path d="M7.3063 23.7517C7.3063 23.7636 7.29448 23.7754 7.29448 23.7872H7.28266C7.28266 23.7636 7.25901 23.7517 7.24719 23.7281C6.51418 22.6995 5.78118 21.6591 5.04817 20.6306C4.30334 19.5783 3.54669 18.5143 2.80187 17.4621C2.08068 16.4453 1.34768 15.4168 0.626497 14.4C0.437335 14.1281 0.248172 13.868 0.0590094 13.5961C0.0471867 13.5724 0.0353641 13.5606 0.0117188 13.5251C0.0471867 13.5251 0.0708321 13.5488 0.0826547 13.5606C1.11123 14.1636 2.12797 14.7665 3.15655 15.3695C4.33881 16.067 5.50926 16.7646 6.69152 17.4621L7.29448 17.8168C7.31812 17.8404 7.31812 17.8641 7.31812 17.8877V23.5862C7.31812 23.6453 7.31812 23.7045 7.3063 23.7517Z" fill="url(#paint2_linear_998_12769)"/>
<path d="M0 12.1301V12.1183C0.378325 11.9528 0.744828 11.7755 1.12315 11.6099C1.60788 11.3853 2.09261 11.1725 2.57734 10.9479C2.94384 10.7823 3.32217 10.605 3.68867 10.4395C4.23251 10.1912 4.76453 9.95476 5.30837 9.70649C5.67488 9.54097 6.04138 9.37545 6.4197 9.19811C6.6798 9.07989 6.95172 8.96166 7.21182 8.84343C7.23547 8.83161 7.27094 8.81979 7.28276 8.79614C7.29458 8.79614 7.29458 8.80797 7.28276 8.81979V16.3272C7.28276 16.3626 7.27094 16.3981 7.29458 16.4218C7.27094 16.4572 7.24729 16.4218 7.23547 16.4099C7.12906 16.3508 7.02266 16.2917 6.91626 16.2208C4.63448 14.873 2.34089 13.5134 0.0591133 12.1656C0.0472906 12.1538 0.0236453 12.142 0 12.1301Z" fill="url(#paint3_linear_998_12769)"/>
<path d="M14.5422 13.5251H14.554C14.554 13.5488 14.5304 13.5724 14.5186 13.5961C12.3432 16.6582 10.1678 19.732 7.99246 22.7941C7.76783 23.1133 7.53138 23.4325 7.30674 23.7517C7.29492 23.7399 7.29492 23.7281 7.29492 23.7163V23.6453V17.9114V17.805C7.79147 17.5094 8.2762 17.2256 8.77275 16.9301C10.688 15.7951 12.6033 14.6719 14.5067 13.537C14.5186 13.5488 14.5304 13.537 14.5422 13.5251Z" fill="url(#paint4_linear_998_12769)"/>
<path d="M7.29513 8.81978V8.79613V8.7252V0.141945C7.29513 0.106477 7.28331 0.0828313 7.30695 0.0473633C9.70695 4.0316 12.107 8.00401 14.4951 11.9882C14.5188 12.0237 14.5542 12.071 14.5661 12.1183C14.4005 12.0592 14.2469 11.9764 14.0932 11.9055C13.904 11.8227 13.703 11.7282 13.5139 11.6454C13.3956 11.5863 13.2656 11.539 13.1473 11.4799C12.9464 11.3853 12.7454 11.3025 12.5444 11.208C12.4262 11.1607 12.3079 11.1016 12.1897 11.0424L11.4094 10.6878C11.2794 10.6286 11.1493 10.5695 11.0074 10.5104L10.44 10.2621C10.3217 10.2149 10.2035 10.1557 10.0853 10.0966L9.30498 9.74195C9.17493 9.68283 9.04488 9.62372 8.90301 9.56461L8.33552 9.31633C8.20547 9.25722 8.08725 9.1981 7.9572 9.13899C7.73257 9.03259 7.50794 8.92618 7.27148 8.8316C7.30695 8.81978 7.29513 8.81978 7.29513 8.81978Z" fill="url(#paint5_linear_998_12769)"/>
<defs>
<linearGradient id="paint0_linear_998_12769" x1="-0.484833" y1="3.05685" x2="7.81535" y2="3.42017" gradientUnits="userSpaceOnUse">
<stop stop-color="#F2974A"/>
<stop offset="1" stop-color="#F4E077"/>
</linearGradient>
<linearGradient id="paint1_linear_998_12769" x1="6.78745" y1="10.7176" x2="15.0501" y2="11.2925" gradientUnits="userSpaceOnUse">
<stop stop-color="#F2974A"/>
<stop offset="1" stop-color="#F4E077"/>
</linearGradient>
<linearGradient id="paint2_linear_998_12769" x1="-0.484833" y1="16.1138" x2="7.80909" y2="16.5425" gradientUnits="userSpaceOnUse">
<stop stop-color="#F2974A"/>
<stop offset="1" stop-color="#F4E077"/>
</linearGradient>
<linearGradient id="paint3_linear_998_12769" x1="-0.495748" y1="10.7236" x2="7.76719" y2="11.2963" gradientUnits="userSpaceOnUse">
<stop stop-color="#F2974A"/>
<stop offset="1" stop-color="#F4E077"/>
</linearGradient>
<linearGradient id="paint4_linear_998_12769" x1="6.80158" y1="16.1048" x2="15.042" y2="16.5295" gradientUnits="userSpaceOnUse">
<stop stop-color="#F2974A"/>
<stop offset="1" stop-color="#F4E077"/>
</linearGradient>
<linearGradient id="paint5_linear_998_12769" x1="6.77574" y1="3.09228" x2="15.0624" y2="3.45585" gradientUnits="userSpaceOnUse">
<stop stop-color="#F2974A"/>
<stop offset="1" stop-color="#F4E077"/>
</linearGradient>
</defs>
</svg>
