<svg width="24" height="22" viewBox="0 0 24 22" fill="none" xmlns="http://www.w3.org/2000/svg">
<path d="M21.913 1L13.3164 7.37777L14.913 3.61504L21.913 1Z" fill="#E17726" stroke="#E17726" stroke-width="0.712817" stroke-linecap="round" stroke-linejoin="round"/>
<path d="M2.08789 1L10.6063 7.43813L9.08796 3.61504L2.08789 1Z" fill="#E27625" stroke="#E27625" stroke-width="0.712817" stroke-linecap="round" stroke-linejoin="round"/>
<path d="M18.822 15.7849L16.5352 19.2892L21.4286 20.635L22.8271 15.8623L18.822 15.7849Z" fill="#E27625" stroke="#E27625" stroke-width="0.712817" stroke-linecap="round" stroke-linejoin="round"/>
<path d="M1.18164 15.8623L2.57162 20.635L7.46504 19.2892L5.18666 15.7849L1.18164 15.8623Z" fill="#E27625" stroke="#E27625" stroke-width="0.712817" stroke-linecap="round" stroke-linejoin="round"/>
<path d="M7.19761 9.86385L5.83398 11.9271L10.6849 12.1431L10.5208 6.92065L7.19761 9.86385Z" fill="#E27625" stroke="#E27625" stroke-width="0.712817" stroke-linecap="round" stroke-linejoin="round"/>
<path d="M16.8037 9.86366L13.4286 6.86011L13.3164 12.1429L18.1673 11.927L16.8037 9.86366Z" fill="#E27625" stroke="#E27625" stroke-width="0.712817" stroke-linecap="round" stroke-linejoin="round"/>
<path d="M7.46484 19.2893L10.391 17.8644L7.87036 15.8972L7.46484 19.2893Z" fill="#E27625" stroke="#E27625" stroke-width="0.712817" stroke-linecap="round" stroke-linejoin="round"/>
<path d="M13.6094 17.8644L16.5356 19.2893L16.13 15.8972L13.6094 17.8644Z" fill="#E27625" stroke="#E27625" stroke-width="0.712817" stroke-linecap="round" stroke-linejoin="round"/>
<path d="M16.5356 19.2889L13.6094 17.864L13.8423 19.7717L13.8168 20.5743L16.5356 19.2889Z" fill="#D5BFB2" stroke="#D5BFB2" stroke-width="0.712817" stroke-linecap="round" stroke-linejoin="round"/>
<path d="M7.46484 19.2889L10.1836 20.5743L10.1666 19.7717L10.391 17.864L7.46484 19.2889Z" fill="#D5BFB2" stroke="#D5BFB2" stroke-width="0.712817" stroke-linecap="round" stroke-linejoin="round"/>
<path d="M10.2347 14.6364L7.80078 13.9205L9.51807 13.135L10.2347 14.6364Z" fill="#233447" stroke="#233447" stroke-width="0.712817" stroke-linecap="round" stroke-linejoin="round"/>
<path d="M13.7656 14.6364L14.4823 13.135L16.2081 13.9205L13.7656 14.6364Z" fill="#233447" stroke="#233447" stroke-width="0.712817" stroke-linecap="round" stroke-linejoin="round"/>
<path d="M7.46393 19.2892L7.88645 15.7849L5.18555 15.8623L7.46393 19.2892Z" fill="#CC6228" stroke="#CC6228" stroke-width="0.712817" stroke-linecap="round" stroke-linejoin="round"/>
<path d="M16.1133 15.7849L16.5358 19.2892L18.8227 15.8623L16.1133 15.7849Z" fill="#CC6228" stroke="#CC6228" stroke-width="0.712817" stroke-linecap="round" stroke-linejoin="round"/>
<path d="M18.1673 11.9272L13.3164 12.1432L13.7653 14.6367L14.482 13.1353L16.2077 13.9208L18.1673 11.9272Z" fill="#CC6228" stroke="#CC6228" stroke-width="0.712817" stroke-linecap="round" stroke-linejoin="round"/>
<path d="M7.80207 13.9208L9.51935 13.1353L10.236 14.6367L10.6849 12.1432L5.83398 11.9272L7.80207 13.9208Z" fill="#CC6228" stroke="#CC6228" stroke-width="0.712817" stroke-linecap="round" stroke-linejoin="round"/>
<path d="M5.83398 11.9272L7.87093 15.8974L7.80207 13.9208L5.83398 11.9272Z" fill="#E27525" stroke="#E27525" stroke-width="0.712817" stroke-linecap="round" stroke-linejoin="round"/>
<path d="M16.2082 13.9208L16.1309 15.8974L18.1678 11.9272L16.2082 13.9208Z" fill="#E27525" stroke="#E27525" stroke-width="0.712817" stroke-linecap="round" stroke-linejoin="round"/>
<path d="M10.6833 12.1431L10.2344 14.6365L10.804 17.5797L10.9247 13.7048L10.6833 12.1431Z" fill="#E27525" stroke="#E27525" stroke-width="0.712817" stroke-linecap="round" stroke-linejoin="round"/>
<path d="M13.3169 12.1431L13.084 13.6963L13.1962 17.5797L13.7658 14.6365L13.3169 12.1431Z" fill="#E27525" stroke="#E27525" stroke-width="0.712817" stroke-linecap="round" stroke-linejoin="round"/>
<path d="M13.7649 14.6362L13.1953 17.5794L13.6093 17.8642L16.13 15.897L16.2074 13.9204L13.7649 14.6362Z" fill="#F5841F" stroke="#F5841F" stroke-width="0.712817" stroke-linecap="round" stroke-linejoin="round"/>
<path d="M7.80078 13.9204L7.86964 15.897L10.3903 17.8642L10.8043 17.5794L10.2347 14.6362L7.80078 13.9204Z" fill="#F5841F" stroke="#F5841F" stroke-width="0.712817" stroke-linecap="round" stroke-linejoin="round"/>
<path d="M13.8171 20.5745L13.8426 19.7719L13.6275 19.5824H10.3732L10.1666 19.7719L10.1836 20.5745L7.46484 19.2891L8.41445 20.0652L10.3477 21.4034H13.653L15.5863 20.0652L16.5359 19.2891L13.8171 20.5745Z" fill="#C0AC9D" stroke="#C0AC9D" stroke-width="0.712817" stroke-linecap="round" stroke-linejoin="round"/>
<path d="M13.6091 17.8641L13.1951 17.5793H10.8045L10.3905 17.8641L10.166 19.7719L10.3726 19.5823H13.6269L13.842 19.7719L13.6091 17.8641Z" fill="#161616" stroke="#161616" stroke-width="0.712817" stroke-linecap="round" stroke-linejoin="round"/>
<path d="M22.2749 7.79264L23 4.27135L21.9127 1L13.6094 7.16268L16.8034 9.86358L21.3168 11.1847L22.3097 10.0192L21.8779 9.70886L22.5682 9.07805L22.0419 8.66403L22.7323 8.13779L22.2749 7.79264Z" fill="#763E1A" stroke="#763E1A" stroke-width="0.712817" stroke-linecap="round" stroke-linejoin="round"/>
<path d="M1 4.27135L1.73367 7.79264L1.2678 8.13779L1.95811 8.66403L1.43187 9.07805L2.12219 9.70886L1.69032 10.0192L2.68328 11.1847L7.19669 9.86358L10.3907 7.16268L2.08733 1L1 4.27135Z" fill="#763E1A" stroke="#763E1A" stroke-width="0.712817" stroke-linecap="round" stroke-linejoin="round"/>
<path d="M21.3176 11.1849L16.8042 9.86377L18.1678 11.9271L16.1309 15.8972L18.8233 15.8624H22.8283L21.3176 11.1849Z" fill="#F5841F" stroke="#F5841F" stroke-width="0.712817" stroke-linecap="round" stroke-linejoin="round"/>
<path d="M7.19725 9.86377L2.68384 11.1849L1.18164 15.8624H5.18666L7.87056 15.8972L5.83362 11.9271L7.19725 9.86377Z" fill="#F5841F" stroke="#F5841F" stroke-width="0.712817" stroke-linecap="round" stroke-linejoin="round"/>
<path d="M13.3165 12.143L13.6098 7.16288L14.9131 3.61523H9.08789L10.3912 7.16288L10.6845 12.143L10.7967 13.7132L10.8052 17.5797H13.1958L13.2043 13.7132L13.3165 12.143Z" fill="#F5841F" stroke="#F5841F" stroke-width="0.712817" stroke-linecap="round" stroke-linejoin="round"/>
</svg>
