<svg width="30" height="19" viewBox="0 0 30 19" fill="none" xmlns="http://www.w3.org/2000/svg">
<path d="M6.03701 3.52897C10.8418 -1.17632 18.6301 -1.17632 23.441 3.52897L24.0191 4.0946C24.2615 4.3308 24.2615 4.70996 24.0191 4.94616L22.0425 6.88546C21.9244 7.00356 21.7255 7.00356 21.6074 6.88546L20.8118 6.10849C17.4615 2.8266 12.0227 2.8266 8.67248 6.10849L7.82092 6.9414C7.70283 7.0595 7.50392 7.0595 7.38582 6.9414L5.40301 5.0021C5.1606 4.7659 5.1606 4.38674 5.40301 4.15054L6.03701 3.52897ZM27.531 7.53189L29.29 9.25365C29.5324 9.48984 29.5324 9.869 29.29 10.1052L21.3525 17.8811C21.1101 18.1173 20.7248 18.1173 20.4823 17.8811L14.8447 12.3615C14.7825 12.3056 14.6893 12.3056 14.6271 12.3615L8.99569 17.8811C8.75328 18.1173 8.36791 18.1173 8.12549 17.8811L0.18181 10.1114C-0.0606032 9.87522 -0.0606032 9.49606 0.18181 9.25986L1.94086 7.53811C2.18327 7.30191 2.56864 7.30191 2.81106 7.53811L8.44871 13.0577C8.51087 13.1136 8.6041 13.1136 8.66626 13.0577L14.2977 7.53811C14.5401 7.30191 14.9255 7.30191 15.1679 7.53811L20.8056 13.0577C20.8677 13.1136 20.9609 13.1136 21.0231 13.0577L26.6608 7.53811C26.897 7.2957 27.2885 7.2957 27.531 7.53189Z" fill="#3A99FB"/>
</svg>
