<svg width="48" height="27" viewBox="0 0 48 27" fill="none" xmlns="http://www.w3.org/2000/svg">
<path d="M39.3081 3.58409C36.113 6.80242 32.96 9.8937 29.849 13.0273C25.771 17.1349 21.651 21.2425 17.6151 25.3501C17.0265 25.943 16.48 26.1971 15.6392 26.1971C10.8465 26.1547 6.05387 26.1547 1.26122 26.1547C0.966938 26.1547 0.672653 26.1124 0 26.1124C1.63959 24.5032 3.02694 23.1481 4.41428 21.793C10.5102 15.6105 16.6061 9.47024 22.7441 3.37236C27.0322 -0.862284 33.6747 -1.11636 38.3412 2.65247C38.5934 2.8642 38.8457 3.16062 39.3081 3.58409Z" fill="url(#paint0_linear_14_3878)"/>
<path d="M28.418 21.9202C33.2947 17.008 38.1294 12.1805 42.9641 7.26831C45.991 9.8091 47.5045 13.0698 46.8739 17.0503C46.2012 21.412 43.6788 24.3763 39.4327 25.562C35.0184 26.8324 31.4449 25.3079 28.418 21.9202Z" fill="url(#paint1_linear_14_3878)"/>
<defs>
<linearGradient id="paint0_linear_14_3878" x1="-2.67143" y1="6.60827" x2="41.544" y2="11.4249" gradientUnits="userSpaceOnUse">
<stop stop-color="#F2974A"/>
<stop offset="1" stop-color="#F4E077"/>
</linearGradient>
<linearGradient id="paint1_linear_14_3878" x1="27.1541" y1="11.9951" x2="48.2118" y2="13.5124" gradientUnits="userSpaceOnUse">
<stop stop-color="#F2974A"/>
<stop offset="1" stop-color="#F4E077"/>
</linearGradient>
</defs>
</svg>
