<svg width="18" height="14" viewBox="0 0 18 14" fill="none" xmlns="http://www.w3.org/2000/svg">
<path d="M15.2378 1.27732C14.0905 0.750913 12.8602 0.363077 11.5739 0.140946C11.5505 0.136659 11.5271 0.147373 11.515 0.168801C11.3568 0.450212 11.1815 0.817336 11.0588 1.10589C9.6753 0.898767 8.29889 0.898767 6.94374 1.10589C6.82099 0.810922 6.63936 0.450212 6.48043 0.168801C6.46836 0.148088 6.44496 0.137374 6.42154 0.140946C5.13593 0.362367 3.90567 0.750203 2.7577 1.27732C2.74776 1.28161 2.73924 1.28876 2.73359 1.29804C0.400044 4.78431 -0.239213 8.18489 0.0743851 11.5433C0.075804 11.5597 0.0850274 11.5755 0.0977985 11.5854C1.63741 12.7161 3.12878 13.4025 4.59246 13.8575C4.61588 13.8646 4.6407 13.8561 4.65561 13.8368C5.00184 13.3639 5.31048 12.8654 5.57511 12.3411C5.59072 12.3104 5.57582 12.274 5.5439 12.2618C5.05435 12.0761 4.5882 11.8497 4.1398 11.5926C4.10433 11.5719 4.10149 11.5212 4.13412 11.4969C4.22848 11.4262 4.32286 11.3526 4.41297 11.2783C4.42927 11.2647 4.45198 11.2619 4.47115 11.2704C7.41696 12.6154 10.6062 12.6154 13.5172 11.2704C13.5364 11.2612 13.5591 11.264 13.5761 11.2776C13.6662 11.3519 13.7606 11.4262 13.8557 11.4969C13.8883 11.5212 13.8862 11.5719 13.8507 11.5926C13.4023 11.8547 12.9361 12.0761 12.4459 12.2611C12.414 12.2733 12.3998 12.3104 12.4154 12.3411C12.6857 12.8647 12.9943 13.3632 13.3342 13.8361C13.3484 13.8561 13.3739 13.8646 13.3973 13.8575C14.8681 13.4025 16.3595 12.7161 17.8991 11.5854C17.9126 11.5755 17.9211 11.5604 17.9225 11.544C18.2978 7.66132 17.2939 4.28862 15.2612 1.29875C15.2562 1.28876 15.2477 1.28161 15.2378 1.27732ZM6.01502 9.49838C5.12812 9.49838 4.39735 8.68415 4.39735 7.68418C4.39735 6.68422 5.11395 5.86999 6.01502 5.86999C6.92315 5.86999 7.64686 6.69137 7.63266 7.68418C7.63266 8.68415 6.91606 9.49838 6.01502 9.49838ZM11.9961 9.49838C11.1092 9.49838 10.3784 8.68415 10.3784 7.68418C10.3784 6.68422 11.095 5.86999 11.9961 5.86999C12.9042 5.86999 13.6279 6.69137 13.6137 7.68418C13.6137 8.68415 12.9042 9.49838 11.9961 9.49838Z" fill="white"/>
</svg>
