<svg width="837" height="340" viewBox="0 0 837 340" fill="none" xmlns="http://www.w3.org/2000/svg">
<path d="M203.399 147.5C204.599 149.7 203.899 152.4 201.699 153.7L141.899 188C139.699 189.2 136.999 188.5 135.699 186.3C134.499 184.1 135.199 181.4 137.399 180.1L197.199 145.8C199.399 144.6 202.099 145.3 203.399 147.5Z" fill="url(#paint0_linear_998_10459)"/>
<path d="M139.698 191.8C144.006 191.8 147.498 188.308 147.498 184C147.498 179.692 144.006 176.2 139.698 176.2C135.391 176.2 131.898 179.692 131.898 184C131.898 188.308 135.391 191.8 139.698 191.8Z" fill="url(#paint1_linear_998_10459)"/>
<path d="M139.7 204.7C151.132 204.7 160.4 195.432 160.4 184C160.4 172.568 151.132 163.3 139.7 163.3C128.268 163.3 119 172.568 119 184C119 195.432 128.268 204.7 139.7 204.7Z" fill="url(#paint2_radial_998_10459)"/>
<path d="M835.785 162.72C836.785 164.42 836.185 166.52 834.485 167.42L741.185 220.92C739.485 221.92 737.385 221.32 736.485 219.62C735.485 217.92 736.085 215.82 737.785 214.92L831.085 161.42C832.685 160.52 834.785 161.12 835.785 162.72Z" fill="url(#paint3_linear_998_10459)"/>
<path d="M505.699 142.6C507.199 145.2 506.299 148.6 503.699 150.1L431.199 191.7C428.599 193.2 425.199 192.3 423.699 189.7C422.199 187.1 423.099 183.7 425.699 182.2L498.199 140.6C500.799 139.1 504.199 140 505.699 142.6Z" fill="url(#paint4_linear_998_10459)"/>
<path d="M428.4 196.3C433.591 196.3 437.8 192.091 437.8 186.9C437.8 181.708 433.591 177.5 428.4 177.5C423.209 177.5 419 181.708 419 186.9C419 192.091 423.209 196.3 428.4 196.3Z" fill="url(#paint5_linear_998_10459)"/>
<path d="M428.402 213.7C443.203 213.7 455.202 201.701 455.202 186.9C455.202 172.099 443.203 160.1 428.402 160.1C413.6 160.1 401.602 172.099 401.602 186.9C401.602 201.701 413.6 213.7 428.402 213.7Z" fill="url(#paint6_radial_998_10459)"/>
<path d="M156.101 126.9C154.901 124.9 155.601 122.3 157.701 121.1L345.501 13.3999C347.501 12.1999 350.101 12.8999 351.301 14.9999C352.501 16.9999 351.801 19.5999 349.701 20.7999L161.801 128.5C159.801 129.7 157.201 129 156.101 126.9Z" fill="url(#paint7_linear_998_10459)"/>
<path d="M351.101 23.5001C347.601 25.5001 343.201 24.3001 341.201 20.8001C339.201 17.3001 340.401 12.9001 343.901 10.9001C347.401 8.90006 351.801 10.1 353.801 13.6C355.801 17 354.601 21.5001 351.101 23.5001Z" fill="url(#paint8_linear_998_10459)"/>
<path d="M347.498 34.2C356.943 34.2 364.598 26.544 364.598 17.1C364.598 7.65591 356.943 0 347.498 0C338.054 0 330.398 7.65591 330.398 17.1C330.398 26.544 338.054 34.2 347.498 34.2Z" fill="url(#paint9_radial_998_10459)"/>
<path d="M24.3 195.7C37.7205 195.7 48.6 184.821 48.6 171.4C48.6 157.98 37.7205 147.1 24.3 147.1C10.8795 147.1 0 157.98 0 171.4C0 184.821 10.8795 195.7 24.3 195.7Z" fill="url(#paint10_radial_998_10459)"/>
<path d="M24.3 339.7C37.7205 339.7 48.6 328.821 48.6 315.4C48.6 301.98 37.7205 291.1 24.3 291.1C10.8795 291.1 0 301.98 0 315.4C0 328.821 10.8795 339.7 24.3 339.7Z" fill="url(#paint11_radial_998_10459)"/>
<path d="M112.125 120.726C113.625 123.326 112.725 126.726 110.125 128.226L37.6245 169.826C35.0245 171.326 31.6245 170.426 30.1245 167.826C28.6245 165.226 29.5245 161.826 32.1245 160.326L104.625 118.726C107.225 117.226 110.625 118.126 112.125 120.726Z" fill="url(#paint12_linear_998_10459)"/>
<path d="M112.125 264.726C113.625 267.326 112.725 270.726 110.125 272.226L37.6245 313.826C35.0245 315.326 31.6245 314.426 30.1245 311.826C28.6245 309.226 29.5245 305.826 32.1245 304.326L104.625 262.726C107.225 261.226 110.625 262.126 112.125 264.726Z" fill="url(#paint13_linear_998_10459)"/>
<defs>
<linearGradient id="paint0_linear_998_10459" x1="203.375" y1="147.493" x2="135.765" y2="186.258" gradientUnits="userSpaceOnUse">
<stop offset="0.0088742" stop-color="#A62E8C" stop-opacity="0"/>
<stop offset="0.6301" stop-color="#D0458F" stop-opacity="0.6268"/>
<stop offset="1" stop-color="#E95492"/>
</linearGradient>
<linearGradient id="paint1_linear_998_10459" x1="143.547" y1="190.76" x2="135.813" y2="177.273" gradientUnits="userSpaceOnUse">
<stop offset="0.0088742" stop-color="#EB5F54"/>
<stop offset="1" stop-color="#E73557"/>
</linearGradient>
<radialGradient id="paint2_radial_998_10459" cx="0" cy="0" r="1" gradientUnits="userSpaceOnUse" gradientTransform="translate(139.682 184.017) rotate(-119.829) scale(20.6781)">
<stop offset="0.2263" stop-color="#EB5F54"/>
<stop offset="1" stop-color="#E73557" stop-opacity="0"/>
</radialGradient>
<linearGradient id="paint3_linear_998_10459" x1="835.743" y1="162.756" x2="736.489" y2="219.665" gradientUnits="userSpaceOnUse">
<stop offset="0.0088742" stop-color="#A62E8C" stop-opacity="0"/>
<stop offset="0.6301" stop-color="#D0458F" stop-opacity="0.6268"/>
<stop offset="1" stop-color="#E95492"/>
</linearGradient>
<linearGradient id="paint4_linear_998_10459" x1="505.664" y1="142.602" x2="423.612" y2="189.648" gradientUnits="userSpaceOnUse">
<stop offset="0.0088742" stop-color="#A62E8C" stop-opacity="0"/>
<stop offset="0.6301" stop-color="#D0458F" stop-opacity="0.6268"/>
<stop offset="1" stop-color="#E95492"/>
</linearGradient>
<linearGradient id="paint5_linear_998_10459" x1="433.059" y1="195.112" x2="423.673" y2="178.743" gradientUnits="userSpaceOnUse">
<stop offset="0.0088742" stop-color="#EB5F54"/>
<stop offset="1" stop-color="#E73557"/>
</linearGradient>
<radialGradient id="paint6_radial_998_10459" cx="0" cy="0" r="1" gradientUnits="userSpaceOnUse" gradientTransform="translate(428.368 186.927) rotate(-119.829) scale(26.8096)">
<stop offset="0.232" stop-color="#EB5F54"/>
<stop offset="0.6041" stop-color="#E94B56" stop-opacity="0.5155"/>
<stop offset="1" stop-color="#E73557" stop-opacity="0"/>
</radialGradient>
<linearGradient id="paint7_linear_998_10459" x1="156.055" y1="126.925" x2="351.179" y2="15.0467" gradientUnits="userSpaceOnUse">
<stop offset="0.0088742" stop-color="#A62E8C" stop-opacity="0"/>
<stop offset="0.6301" stop-color="#D0458F" stop-opacity="0.6268"/>
<stop offset="1" stop-color="#E95492"/>
</linearGradient>
<linearGradient id="paint8_linear_998_10459" x1="343.882" y1="10.8234" x2="351.131" y2="23.4658" gradientUnits="userSpaceOnUse">
<stop offset="0.0088742" stop-color="#EB5F54"/>
<stop offset="1" stop-color="#E73557"/>
</linearGradient>
<radialGradient id="paint9_radial_998_10459" cx="0" cy="0" r="1" gradientUnits="userSpaceOnUse" gradientTransform="translate(347.504 17.1445) rotate(60.1712) scale(17.073)">
<stop offset="0.3697" stop-color="#EB5F54"/>
<stop offset="1" stop-color="#E73557" stop-opacity="0"/>
</radialGradient>
<radialGradient id="paint10_radial_998_10459" cx="0" cy="0" r="1" gradientUnits="userSpaceOnUse" gradientTransform="translate(24.3064 171.428) rotate(-119.829) scale(24.3404)">
<stop offset="0.195" stop-color="#EB5F54"/>
<stop offset="1" stop-color="#E73557" stop-opacity="0"/>
</radialGradient>
<radialGradient id="paint11_radial_998_10459" cx="0" cy="0" r="1" gradientUnits="userSpaceOnUse" gradientTransform="translate(24.3064 315.428) rotate(-119.829) scale(24.3404)">
<stop offset="0.195" stop-color="#EB5F54"/>
<stop offset="1" stop-color="#E73557" stop-opacity="0"/>
</radialGradient>
<linearGradient id="paint12_linear_998_10459" x1="112.09" y1="120.728" x2="30.0382" y2="167.775" gradientUnits="userSpaceOnUse">
<stop offset="0.0088742" stop-color="#A62E8C" stop-opacity="0"/>
<stop offset="0.6301" stop-color="#D0458F" stop-opacity="0.6268"/>
<stop offset="1" stop-color="#E95492"/>
</linearGradient>
<linearGradient id="paint13_linear_998_10459" x1="112.09" y1="264.728" x2="30.0382" y2="311.775" gradientUnits="userSpaceOnUse">
<stop offset="0.0088742" stop-color="#A62E8C" stop-opacity="0"/>
<stop offset="0.6301" stop-color="#D0458F" stop-opacity="0.6268"/>
<stop offset="1" stop-color="#E95492"/>
</linearGradient>
</defs>
</svg>
