<svg width="18" height="16" viewBox="0 0 18 16" fill="none" xmlns="http://www.w3.org/2000/svg">
<path fill-rule="evenodd" clip-rule="evenodd" d="M13.6407 4.98483H17.1667C17.1667 2.15383 15.4704 0.5 12.5963 0.5H5.07037C2.1963 0.5 0.5 2.15383 0.5 4.94872V11.0513C0.5 13.8462 2.1963 15.5 5.07037 15.5H12.5963C15.4704 15.5 17.1667 13.8462 17.1667 11.0513V10.7913H13.6407C12.0043 10.7913 10.6778 9.49793 10.6778 7.9025C10.6778 6.30707 12.0043 5.01372 13.6407 5.01372V4.98483ZM13.6407 6.22701H16.5444C16.8881 6.22701 17.1667 6.49861 17.1667 6.83365V8.94247C17.1627 9.27588 16.8864 9.54521 16.5444 9.54911H13.7074C12.879 9.55998 12.1546 9.00698 11.9667 8.22027C11.8726 7.73191 12.0047 7.22797 12.3276 6.84351C12.6505 6.45906 13.1311 6.2334 13.6407 6.22701ZM13.7667 8.44415H14.0407C14.3926 8.44415 14.6778 8.16608 14.6778 7.82306C14.6778 7.48004 14.3926 7.20197 14.0407 7.20197H13.7667C13.5984 7.20004 13.4363 7.26387 13.3167 7.3792C13.197 7.49453 13.1296 7.65177 13.1296 7.81584C13.1296 8.16005 13.4137 8.44019 13.7667 8.44415ZM4.44814 4.98483H9.15184C9.50367 4.98483 9.78888 4.70676 9.78888 4.36375C9.78888 4.02073 9.50367 3.74266 9.15184 3.74266H4.44814C4.09919 3.74263 3.81516 4.01633 3.8111 4.35652C3.81108 4.70073 4.09512 4.98088 4.44814 4.98483Z" fill="url(#paint0_linear_1027_998)"/>
<defs>
<linearGradient id="paint0_linear_1027_998" x1="-0.632686" y1="4.28378" x2="18.2145" y2="5.80414" gradientUnits="userSpaceOnUse">
<stop stop-color="#F2974A"/>
<stop offset="1" stop-color="#F4E077"/>
</linearGradient>
</defs>
</svg>
