<svg width="17" height="16" viewBox="0 0 17 16" fill="none" xmlns="http://www.w3.org/2000/svg">
<path fill-rule="evenodd" clip-rule="evenodd" d="M13.1407 4.98483H16.6667C16.6667 2.15383 14.9704 0.5 12.0963 0.5H4.57037C1.6963 0.5 0 2.15383 0 4.94872V11.0513C0 13.8462 1.6963 15.5 4.57037 15.5H12.0963C14.9704 15.5 16.6667 13.8462 16.6667 11.0513V10.7913H13.1407C11.5043 10.7913 10.1778 9.49793 10.1778 7.9025C10.1778 6.30707 11.5043 5.01372 13.1407 5.01372V4.98483ZM13.1407 6.22701H16.0444C16.3881 6.22701 16.6667 6.49861 16.6667 6.83365V8.94247C16.6627 9.27588 16.3864 9.54521 16.0444 9.54911H13.2074C12.379 9.55998 11.6546 9.00698 11.4667 8.22027C11.3726 7.73191 11.5047 7.22797 11.8276 6.84351C12.1505 6.45906 12.6311 6.2334 13.1407 6.22701ZM13.2667 8.44415H13.5407C13.8926 8.44415 14.1778 8.16608 14.1778 7.82306C14.1778 7.48004 13.8926 7.20197 13.5407 7.20197H13.2667C13.0984 7.20004 12.9363 7.26387 12.8167 7.3792C12.697 7.49453 12.6296 7.65177 12.6296 7.81584C12.6296 8.16005 12.9137 8.44019 13.2667 8.44415ZM3.94814 4.98483H8.65184C9.00367 4.98483 9.28888 4.70676 9.28888 4.36375C9.28888 4.02073 9.00367 3.74266 8.65184 3.74266H3.94814C3.59919 3.74263 3.31516 4.01633 3.3111 4.35652C3.31108 4.70073 3.59512 4.98088 3.94814 4.98483Z" fill="url(#paint0_linear_1287_1764)"/>
<defs>
<linearGradient id="paint0_linear_1287_1764" x1="-0.520833" y1="2.95283" x2="18.5207" y2="6.25898" gradientUnits="userSpaceOnUse">
<stop stop-color="white"/>
</linearGradient>
</defs>
</svg>
